<?xml version="1.0" encoding="UTF-8" standalone="no"?>
<svg
   version="1.1"
   id="Layer_1"
   x="0px"
   y="0px"
   width="100%"
   viewBox="0 0 810 814"
   enable-background="new 0 0 810 814"
   xml:space="preserve"
   sodipodi:docname="mascotCircle.svg"
   inkscape:version="1.3 (0e150ed6c4, 2023-07-21)"
   xmlns:inkscape="http://www.inkscape.org/namespaces/inkscape"
   xmlns:sodipodi="http://sodipodi.sourceforge.net/DTD/sodipodi-0.dtd"
   xmlns="http://www.w3.org/2000/svg"
   xmlns:svg="http://www.w3.org/2000/svg"><defs
   id="defs17" /><sodipodi:namedview
   id="namedview17"
   pagecolor="#ffffff"
   bordercolor="#000000"
   borderopacity="0.25"
   inkscape:showpageshadow="2"
   inkscape:pageopacity="0.0"
   inkscape:pagecheckerboard="0"
   inkscape:deskcolor="#d1d1d1"
   inkscape:zoom="0.85649613"
   inkscape:cx="260.94689"
   inkscape:cy="342.67522"
   inkscape:window-width="1920"
   inkscape:window-height="991"
   inkscape:window-x="2391"
   inkscape:window-y="-9"
   inkscape:window-maximized="1"
   inkscape:current-layer="Layer_1"
   showguides="false" />&#10;&#10;&#10;&#10;&#10;&#10;&#10;&#10;&#10;&#10;&#10;&#10;&#10;&#10;&#10;&#10;&#10;&#10;<path
   style="fill:#65C8F5;stroke-width:1.03248"
   id="path5"
   sodipodi:type="arc"
   sodipodi:cx="405.00635"
   sodipodi:cy="407"
   sodipodi:rx="406.00635"
   sodipodi:ry="406"
   sodipodi:start="0.11856654"
   sodipodi:end="6.2752733"
   sodipodi:arc-type="arc"
   d="M 808.16221,455.02531 A 406.00635,406 0 0 1 369.74981,811.46633 406.00635,406 0 0 1 -0.37874419,384.54859 406.00635,406 0 0 1 414.63089,1.1140912 406.00635,406 0 0 1 810.99999,403.78776"
   sodipodi:open="true" /><path
   style="fill:#f9f9f9;stroke-width:0.889925"
   id="path8"
   sodipodi:type="arc"
   sodipodi:cx="405.00558"
   sodipodi:cy="407"
   sodipodi:rx="356.25558"
   sodipodi:ry="356.25601"
   sodipodi:start="0.11856654"
   sodipodi:end="6.2752733"
   sodipodi:open="true"
   sodipodi:arc-type="arc"
   d="M 758.75998,449.14114 A 356.25558,356.25601 0 0 1 374.06928,761.91025 356.25558,356.25601 0 0 1 49.295129,387.29938 356.25558,356.25601 0 0 1 413.45077,50.8441 356.25558,356.25601 0 0 1 761.25002,404.18133" /><path
   d="m 384.41919,127.20763 c -0.17791,0.24687 -0.33612,0.58104 -0.50586,0.86524 -0.16975,0.2842 -0.35025,0.51905 -0.57227,0.56445 -3.8732,0.79227 -7.79405,1.4273 -11.68945,2.13867 -3.89541,0.71138 -7.76588,1.4988 -11.54102,2.59571 -4.04125,1.17423 -8.04737,2.52729 -11.99414,4.02929 -3.94676,1.50201 -7.8337,3.1537 -11.63867,4.92383 -4.33646,2.01738 -8.62159,4.16564 -12.83789,6.43359 -4.21631,2.26796 -8.36478,4.65439 -12.42578,7.15039 -2.91952,1.79441 -5.69936,3.8177 -8.40625,5.94141 -2.70689,2.12371 -5.33984,4.34818 -7.96875,6.54687 -2.49921,2.09022 -4.93308,4.24602 -7.29102,6.46875 -2.35794,2.22274 -4.63986,4.51371 -6.83594,6.87696 -2.19607,2.36324 -4.30669,4.7988 -6.32031,7.31054 -2.01362,2.51175 -3.93161,5.09935 -5.74219,7.76758 -3.34918,4.93569 -6.66384,9.90994 -9.64062,15.06641 -1.48839,2.57823 -2.89323,5.20153 -4.17383,7.88867 -1.2806,2.68715 -2.43724,5.43767 -3.43359,8.26953 -1.12604,3.20045 -2.44894,6.35047 -3.69727,9.51563 -1.24832,3.16515 -2.42262,6.34611 -3.2539,9.61132 -1.15586,4.54011 -2.34963,9.12391 -3.3086,13.73243 -0.47948,2.30425 -0.901,4.61441 -1.22851,6.92773 -0.32752,2.31332 -0.56092,4.63024 -0.66797,6.94727 -0.48688,10.53793 -0.67395,21.08977 -0.77149,31.64453 -0.0975,10.55475 -0.10576,21.11271 -0.23828,31.66601 -0.006,0.48164 -0.0759,0.96339 -0.11328,1.41016 -2.93015,0.45396 -5.83913,0.8425 -8.7207,1.26758 -2.88157,0.42507 -5.73537,0.88573 -8.5586,1.48633 -2.30655,0.49069 -4.60687,1.07579 -6.87695,1.75 -2.27007,0.6742 -4.5106,1.43811 -6.70312,2.28711 -4.46049,1.72721 -8.94409,3.43085 -13.38086,5.22656 -4.43677,1.79571 -8.82602,3.68218 -13.10352,5.77929 -3.45991,1.69629 -6.86232,3.49342 -10.19141,5.39844 -3.32908,1.90502 -6.58648,3.91968 -9.7539,6.05274 -3.16742,2.13306 -6.24581,4.38326 -9.2207,6.76367 -2.9749,2.38041 -5.84613,4.89005 -8.59766,7.53711 -2.27153,2.18528 -4.53916,4.38451 -6.76367,6.625 -2.22452,2.24048 -4.4058,4.52311 -6.5,6.87695 -2.0942,2.35384 -4.10183,4.77739 -5.98242,7.30274 -1.8806,2.52534 -3.63311,5.15125 -5.2168,7.90625 -2.30571,4.01104 -4.8007,7.94029 -7.19336,11.9121 -1.19633,1.98591 -2.36751,3.98303 -3.47656,6.00586 -1.10906,2.02284 -2.15638,4.07119 -3.10547,6.16211 -1.44958,3.19353 -2.8393,6.4132 -4.13086,9.66602 -1.291571,3.25282 -2.485331,6.53917 -3.539061,9.86719 -1.05374,3.32801 -1.96899,6.69808 -2.70508,10.11718 -0.73609,3.4191 -1.52182,6.87345 -1.630861,10.41407 -2.84718,92.44939 0.388556,99.08797 0.341051,142.54536 L 133.2727,650.018 c 0,-81.04256 -0.0993,-73.08684 0.14258,-154.12873 0.007,-2.22881 0.1015,-4.45985 0.29687,-6.6875 0.19538,-2.22764 0.49037,-4.45082 0.89844,-6.66015 0.40808,-2.20934 0.92946,-4.4062 1.57422,-6.58008 0.64476,-2.17389 1.41293,-4.32597 2.31836,-6.44727 1.37426,-3.21967 2.53226,-6.5274 3.70508,-9.82812 1.17281,-3.30073 2.36035,-6.59294 3.79687,-9.78321 1.10349,-2.45064 2.32403,-4.83766 3.64649,-7.16211 1.32245,-2.32444 2.74686,-4.58616 4.26367,-6.79296 1.51681,-2.20681 3.12595,-4.35738 4.8125,-6.45508 1.68655,-2.0977 3.45152,-4.14348 5.2832,-6.14063 2.04079,-2.22513 4.13885,-4.39427 6.30274,-6.49219 2.16388,-2.09791 4.3941,-4.12473 6.69922,-6.06445 2.30511,-1.93972 4.68396,-3.79241 7.14843,-5.54297 2.46448,-1.75055 5.01428,-3.39928 7.65625,-4.92968 4.49371,-2.60305 9.03005,-5.0939 13.74805,-7.25782 2.359,-1.08196 4.764,-2.0811 7.23047,-2.97265 2.46647,-0.89156 4.9953,-1.67486 7.60351,-2.32227 5.23684,-1.29987 10.41874,-2.64973 15.66016,-3.63281 2.62071,-0.49154 5.25509,-0.89178 7.91992,-1.14844 2.66483,-0.25666 5.36006,-0.36911 8.09766,-0.28711 4.27841,0.12819 8.56806,0.0364 12.85351,-0.0137 4.28546,-0.0501 8.56711,-0.0584 12.82813,0.23437 1.18806,0.0816 2.37131,0.25755 3.55078,0.49805 1.17947,0.2405 2.35433,0.54491 3.52539,0.88477 2.34212,0.67971 4.66705,1.49857 6.97656,2.21875 3.48346,1.08625 7.06044,2.03226 10.56055,3.12109 1.75006,0.54442 3.48112,1.12357 5.17188,1.77539 1.69075,0.65183 3.34053,1.37662 4.92968,2.20703 4.65627,2.43313 9.25721,5.03716 13.72657,7.83203 4.46935,2.79488 8.8077,5.77987 12.9375,8.97071 2.62889,2.03118 5.16293,4.16748 7.58789,6.4082 2.42495,2.24072 4.7406,4.5867 6.93359,7.03711 2.19299,2.45041 4.26427,5.00576 6.19727,7.66602 1.933,2.66025 3.72806,5.42465 5.37304,8.29492 1.99505,3.48108 3.88157,7.03616 5.64258,10.64843 1.76101,3.61228 3.39653,7.28135 4.89063,10.98829 1.42095,3.52543 2.65503,7.12923 3.77734,10.76953 1.12231,3.6403 2.13381,7.3182 3.10742,10.99023 0.54504,2.05559 0.96747,4.17089 1.25586,6.30274 0.28839,2.13184 0.44281,4.28066 0.44531,6.40234 0.0968,80.79183 0.0712,203.58273 0.43555,284.72693 13.85803,0.35223 27.35207,-0.647 40.8457,-0.647 0,-79.03246 0.0207,-199.06505 -0.0332,-278.09751 -0.003,-3.89432 0.19739,-7.74516 0.68359,-11.55859 0.24311,-1.90672 0.55699,-3.80469 0.95313,-5.69336 0.39614,-1.88867 0.87363,-3.76855 1.44336,-5.64063 1.02003,-3.35171 1.8406,-6.7742 2.73242,-10.16797 0.89182,-3.39376 1.85509,-6.75914 3.16406,-9.99609 1.02879,-2.54405 2.13373,-5.03718 3.3125,-7.47851 1.17877,-2.44133 2.43202,-4.83123 3.75977,-7.16993 1.32775,-2.3387 2.72934,-4.62516 4.20508,-6.86132 1.47573,-2.23617 3.02572,-4.42097 4.64843,-6.55469 1.62272,-2.13373 3.3192,-4.21667 5.08789,-6.24805 1.7687,-2.03138 3.60978,-4.01227 5.52344,-5.94141 1.91367,-1.92913 3.8994,-3.80582 5.95703,-5.63281 2.05764,-1.82698 4.18611,-3.6032 6.38672,-5.32812 2.25761,-1.7696 4.56984,-3.47069 6.93555,-5.08789 2.36571,-1.6172 4.78661,-3.15198 7.25781,-4.58594 2.47121,-1.43396 4.99427,-2.76841 7.56836,-3.98828 2.57409,-1.21987 5.19868,-2.32388 7.87305,-3.29883 3.13069,-1.1413 6.29095,-2.23838 9.48633,-3.23438 3.19538,-0.99599 6.42476,-1.89059 9.69531,-2.63085 3.27055,-0.74027 6.5813,-1.32513 9.9375,-1.69922 3.3562,-0.37409 6.7586,-0.53807 10.21094,-0.43555 2.68589,0.0798 5.38686,-0.15524 8.08398,-0.36328 2.69712,-0.20804 5.39126,-0.38869 8.06055,-0.20313 4.03736,0.28071 8.11772,0.54475 12.16015,0.99219 2.02122,0.22372 4.03232,0.49435 6.02344,0.83399 1.99112,0.33963 3.96224,0.74887 5.90234,1.2539 2.732,0.71119 5.42016,1.50323 8.06446,2.375 2.6443,0.87177 5.24532,1.8234 7.80078,2.85352 2.55546,1.03011 5.06578,2.13797 7.53125,3.32422 2.46547,1.18624 4.88543,2.45087 7.25976,3.79101 2.37434,1.34015 4.70429,2.75622 6.98633,4.24805 2.28204,1.49182 4.51648,3.05989 6.70508,4.70117 2.1886,1.64128 4.32982,3.35602 6.42383,5.14453 2.09401,1.78851 4.1404,3.65047 6.13867,5.58399 2.79091,2.70045 5.46885,5.4933 8.00391,8.38867 2.53506,2.89537 4.92718,5.89314 7.15039,9.00195 2.22321,3.10882 4.27747,6.32913 6.13281,9.66992 1.85534,3.3408 3.51189,6.80128 4.94336,10.39258 1.83135,4.59457 3.52183,9.25743 5.0625,13.96484 1.54067,4.70742 2.93249,9.45929 4.16992,14.23438 0.73201,2.82479 1.15151,5.75283 1.38867,8.70898 0.23716,2.95616 0.29093,5.94037 0.29493,8.87891 0.10165,79.28276 -0.34428,-2.71444 -1.00049,145.81121 14.63622,0.35223 30.34195,-46.25667 44.61181,-46.25667 0.38409,-29.7539 0.19752,-22.02188 -0.22263,-95.95688 l -1.26172,-24.67578 c -0.40651,-2.71294 -0.84809,-5.41652 -1.35547,-8.10352 -0.50738,-2.687 -1.07972,-5.35714 -1.74609,-8.00391 -0.66638,-2.64677 -1.42705,-5.26909 -2.31055,-7.86132 -0.8835,-2.59224 -1.89009,-5.15433 -3.04883,-7.67774 -2.23875,-4.8753 -4.33764,-9.82731 -6.53711,-14.72461 -1.09973,-2.44865 -2.22335,-4.88344 -3.4043,-7.28906 -1.18094,-2.40562 -2.41739,-4.7811 -3.74023,-7.11133 -1.02651,-1.80826 -2.15582,-3.56478 -3.35156,-5.28516 -1.19575,-1.72037 -2.4591,-3.40522 -3.75781,-5.07031 -2.59743,-3.33016 -5.3336,-6.58222 -7.94532,-9.88672 -1.90468,-2.40991 -3.89702,-4.73975 -5.9707,-6.99218 -2.07368,-2.25244 -4.23031,-4.42647 -6.46094,-6.52539 -2.23063,-2.09893 -4.53657,-4.1229 -6.91211,-6.07227 -2.37553,-1.94937 -4.81972,-3.82512 -7.32812,-5.62891 -3.76568,-2.70791 -7.61016,-5.33337 -11.52539,-7.85351 -3.91524,-2.52014 -7.90038,-4.93461 -11.95117,-7.22266 -3.43573,-1.94062 -6.98557,-3.71389 -10.59375,-5.375 -3.60818,-1.66111 -7.27538,-3.20964 -10.94922,-4.70508 -2.17391,-0.88489 -4.45248,-1.53528 -6.76368,-2.10742 -2.31119,-0.57213 -4.65457,-1.06718 -6.95898,-1.63672 -6.68856,-1.65302 -13.40555,-3.20038 -20.52734,-4.89258 0,-8.48772 0.0928,-17.35642 -0.0215,-26.22265 -0.0892,-6.92327 -0.0772,-13.85564 -0.16992,-20.78125 -0.0927,-6.92562 -0.29021,-13.84576 -0.80078,-20.74219 -0.14363,-1.94025 -0.44044,-3.86788 -0.82813,-5.78906 -0.38768,-1.92118 -0.86511,-3.83589 -1.36718,-5.75 -1.00415,-3.82822 -2.10727,-7.65341 -2.79102,-11.52539 -0.35903,-2.03307 -0.82946,-4.02428 -1.38476,-5.98438 -0.5553,-1.96009 -1.19659,-3.88816 -1.89844,-5.79492 -1.40371,-3.81351 -3.0506,-7.54184 -4.74219,-11.25976 -1.37306,-3.01779 -2.832,-5.98485 -4.37891,-8.90235 -1.5469,-2.9175 -3.1822,-5.78428 -4.90429,-8.60351 -1.72209,-2.81924 -3.53109,-5.5895 -5.42969,-8.3125 -1.8986,-2.723 -3.88645,-5.39856 -5.96289,-8.02735 -2.1411,-2.71063 -4.34629,-5.36007 -6.62305,-7.9414 -2.27676,-2.58134 -4.62416,-5.09504 -7.04883,-7.53125 -2.42466,-2.43622 -4.9269,-4.79507 -7.51171,-7.07032 -2.58482,-2.27525 -5.25257,-4.46599 -8.00977,-6.56445 -3.73573,-2.84318 -7.64713,-5.49358 -11.6543,-8.01172 -4.00717,-2.51814 -8.11052,-4.90537 -12.22851,-7.22265 -2.36482,-1.33075 -4.73947,-2.64965 -7.14258,-3.91406 -2.40311,-1.26442 -4.8345,-2.47306 -7.3125,-3.58594 -2.478,-1.11288 -5.00232,-2.12972 -7.5918,-3.00586 -2.58948,-0.87614 -5.24486,-1.61183 -7.98242,-2.16602 -2.60281,-0.52691 -5.16373,-1.24445 -7.71875,-1.99023 -2.55502,-0.74578 -5.10388,-1.52035 -7.68555,-2.16016 -3.16472,-0.78432 -6.43288,-1.16782 -9.63672,-1.8164 -0.80993,-0.16397 -1.55041,-0.65323 -2.42382,-1.23438 -15.40942,-0.24166 -30.7175,-0.2422 -46.02539,-0.24219 z m 26.66796,43.05274 c 2.02879,-0.008 4.05841,0.0698 6.0879,0.21679 2.02948,0.14696 4.05827,0.36314 6.08789,0.63867 4.05923,0.55107 8.11751,1.33491 12.17382,2.24414 2.46811,0.55324 4.90302,1.1693 7.30469,1.85352 2.40167,0.68423 4.77025,1.43562 7.10547,2.25586 2.33522,0.82024 4.63749,1.7106 6.90625,2.67187 2.26876,0.96128 4.50474,1.99423 6.70703,3.10157 3.72897,1.87497 7.41614,3.93916 10.95899,6.20117 3.54284,2.26201 6.94099,4.721 10.0957,7.38867 4.06447,3.43696 8.02712,7.04228 11.80859,10.81055 3.78147,3.76827 7.38118,7.70005 10.72266,11.79101 1.29956,1.59106 2.51326,3.25627 3.6582,4.97657 1.14494,1.7203 2.22135,3.49508 3.2461,5.30273 2.0495,3.61529 3.89458,7.36287 5.66992,11.07617 1.77704,3.71684 3.41074,7.52203 4.88476,11.38281 1.47403,3.86079 2.78672,7.77843 3.92188,11.72266 0.62711,2.17895 1.18866,4.3723 1.67383,6.58203 0.48517,2.20973 0.8938,4.43614 1.2207,6.67578 0.3269,2.23965 0.57231,4.49302 0.72461,6.76172 0.1523,2.2687 0.21246,4.55272 0.17383,6.84961 -0.25063,14.90073 -0.0684,29.80822 -0.0684,44.71289 0,1.67262 -0.006,2.89758 -0.1211,3.81641 -0.11547,0.91883 -0.34078,1.53102 -0.77929,1.97461 -0.43851,0.44358 -1.08949,0.7199 -2.0586,0.96679 -0.9691,0.2469 -2.25562,0.46423 -3.96289,0.79297 -4.51832,0.87003 -8.98851,1.97131 -13.45117,3.10938 -4.46265,1.13807 -8.91788,2.31223 -13.4082,3.33203 -2.77556,0.63036 -5.47275,1.4449 -8.10742,2.39453 -2.63468,0.94963 -5.20596,2.03584 -7.73438,3.20703 -5.05683,2.34238 -9.93583,5.02953 -14.77539,7.67188 -2.3319,1.27318 -4.62214,2.63818 -6.87109,4.07812 -2.24896,1.43994 -4.45747,2.95429 -6.62305,4.52735 -4.33117,3.14611 -8.49511,6.52517 -12.49023,10.00195 -4.22512,3.67691 -8.24474,7.5953 -12.12891,11.64453 -3.88417,4.04923 -7.63262,8.23006 -11.31445,12.43359 -1.04278,1.19053 -2.00773,2.44451 -2.92188,3.74024 -0.91415,1.29573 -1.7782,2.63223 -2.62109,3.98633 -1.68579,2.70819 -3.28625,5.4859 -5.03125,8.14648 -0.79607,1.21368 -1.63616,2.40068 -2.5293,3.70703 -3.16217,-4.65976 -6.05044,-9.04924 -9.07617,-13.34961 -2.25421,-3.20387 -4.60214,-6.31958 -7.05078,-9.3457 -2.44865,-3.02612 -4.99914,-5.96301 -7.65821,-8.80664 -2.65906,-2.84363 -5.42702,-5.59557 -8.3125,-8.25195 -2.88547,-2.65639 -5.88774,-5.21725 -9.01562,-7.68164 -2.99505,-2.35974 -6.04437,-4.62829 -9.15234,-6.79883 -3.10798,-2.17055 -6.27376,-4.24275 -9.50196,-6.21289 -3.22819,-1.97015 -6.51928,-3.83716 -9.875,-5.59571 -3.35571,-1.75855 -6.77704,-3.40956 -10.26758,-4.94531 -4.04057,-1.77774 -8.09437,-3.60431 -12.28515,-5.10351 -2.09539,-0.74961 -4.22529,-1.41676 -6.4043,-1.95508 -2.179,-0.53832 -4.40784,-0.94709 -6.70117,-1.17969 -2.78042,-0.28201 -5.5354,-0.84638 -8.27344,-1.52148 -2.73803,-0.67511 -5.45951,-1.46275 -8.17187,-2.19336 -0.50901,-0.13711 -1.09712,-0.60183 -1.56055,-1.15625 -0.46343,-0.55443 -0.80119,-1.19707 -0.80469,-1.69141 -0.0697,-9.70636 -0.14199,-19.41423 -0.15625,-29.12109 -0.0143,-9.70686 0.0291,-19.41297 0.19336,-29.11719 0.019,-1.12147 0.18218,-2.23986 0.42188,-3.35547 0.23969,-1.11561 0.55579,-2.22865 0.88086,-3.34375 0.32506,-1.1151 0.65851,-2.23163 0.93359,-3.35156 0.27508,-1.11994 0.49228,-2.24294 0.58203,-3.37305 0.13714,-1.72669 0.40399,-3.41364 0.76563,-5.06836 0.36163,-1.65471 0.81787,-3.27733 1.33593,-4.88086 1.03613,-3.20705 2.31696,-6.33392 3.57032,-9.46094 1.21157,-3.02274 2.61887,-5.97184 4.08789,-8.89843 1.46901,-2.9266 2.99948,-5.82974 4.45898,-8.75782 1.07901,-2.16472 2.32548,-4.21291 3.68164,-6.18164 1.35617,-1.96872 2.82305,-3.85804 4.3457,-5.70898 3.04532,-3.70188 6.31209,-7.24722 9.35938,-10.94727 2.54861,-2.42618 5.12544,-4.76263 7.74805,-6.99804 2.62261,-2.23542 5.29071,-4.3689 8.02539,-6.38868 2.73468,-2.01977 5.53511,-3.92583 8.41992,-5.70507 2.88481,-1.77925 5.85473,-3.43147 8.92773,-4.94532 2.37289,-1.16893 4.77771,-2.23404 7.21485,-3.21289 2.43714,-0.97884 4.90604,-1.87085 7.40429,-2.69336 4.99652,-1.64501 10.11179,-3.01219 15.33399,-4.23437 2.7016,-0.63228 5.40405,-1.14579 8.10547,-1.5625 2.70141,-0.41671 5.40297,-0.73734 8.10547,-0.97852 5.40499,-0.48235 10.81355,-0.65342 16.23046,-0.67382 z"
   style="display:inline;opacity:1;fill:#65c8f5;stroke-width:0.764466"
   id="path23"
   sodipodi:nodetypes="sscsssssssssssssssssssssscssssssssssssssssssssscccsssssssssssssssssssssssssssssssssssssssccccssssssssssssssssssssssssssssssssssssssssscccccsssssssssssssssssssscsssssssssssssssssssssssssscsssssssssssssssssssssssscsssssssssssssssscssssssssssssssscssssssssssssscsssssssssss" /><path
   id="path19"
   style="opacity:1;fill:#65c8f5;stroke-width:0.764466"
   d="m 222.91602,527.75391 c 11.82571,22.37823 23.64633,44.76022 35.46875,67.14062 6.64792,-13.05664 13.24725,-26.12477 20.18285,-39.00629 5.46133,-10.35141 10.90964,-20.70967 16.35426,-31.06988 -24.51954,0 -49.03907,0 -73.5586,0 0.51758,0.97851 1.03516,1.95703 1.55274,2.93555 z" /><path
   id="path22"
   style="fill:#65c8f5;stroke-width:0.764466"
   d="m 203.81836,459.52734 c -7.44286,0.1445 -14.40415,4.51977 -18.46098,10.64876 -3.39848,4.97923 -4.99625,11.47076 -3.21368,17.34415 1.61419,5.1506 5.38624,9.39501 9.78054,12.40604 5.57928,3.73347 12.8265,5.04741 19.28232,3.03332 6.06728,-1.75161 11.56461,-6.00647 14.08863,-11.88488 1.73676,-3.88758 2.59497,-8.17722 2.50182,-12.43238 -0.13169,-3.43411 -1.36187,-6.848 -3.66379,-9.42706 -3.88731,-4.92765 -9.5424,-8.61584 -15.82929,-9.45059 -1.48506,-0.20682 -2.98753,-0.25976 -4.48557,-0.23736 z" /><path
   id="path18"
   style="fill:#65c8f5;stroke-width:0.764466"
   d="m 310.91797,459.52734 c -7.67076,0.20394 -15.36026,4.27121 -19.18164,11.04102 -3.38176,5.807 -4.27498,13.23686 -1.60156,19.49023 3.14884,7.2147 10.24164,12.41396 17.95507,13.69532 3.47481,0.5326 7.09089,0.20395 10.38477,-1.03907 0.29238,-0.0858 1.0333,-0.33397 1.48485,-0.50451 4.51435,-1.6488 8.71982,-4.64033 10.97804,-8.97595 1.88583,-3.47647 2.84542,-7.3975 3.2269,-11.31155 0.19025,-6.24346 -2.84056,-12.28572 -7.30893,-16.52439 -2.6267,-2.35267 -5.73913,-4.22137 -9.11821,-5.25031 -2.22246,-0.57872 -4.53523,-0.64522 -6.81929,-0.62079 z" /><path
   id="path26"
   style="opacity:1;fill:#65c8f5;stroke-width:0.764466"
   d="m 515.58008,527.64844 c 6.41658,12.69193 13.20968,25.18827 19.79962,37.78598 5.16461,9.79326 10.32765,19.58735 15.49335,29.38003 12.23689,-23.3565 24.47361,-46.7131 36.71289,-70.06836 -24.49154,0 -48.98308,0 -73.47461,0 0.48958,0.96745 0.97916,1.9349 1.46875,2.90235 z" /><path
   id="path24"
   style="fill:#65c8f5;stroke-width:0.764466"
   d="m 496.45508,459.71289 c -9.15247,0.0766 -18.01449,6.35704 -20.75895,15.15119 -2.57185,7.67444 -0.39343,16.68368 5.38236,22.35095 4.00375,4.21102 9.79816,6.43223 15.55494,6.58011 5.35467,0.28903 10.95737,-0.95876 15.21698,-4.3442 6.2048,-4.73542 9.9233,-12.81956 8.76761,-20.62632 -1.00791,-7.00339 -5.78894,-13.17666 -12.05116,-16.34934 -3.719,-1.92296 -7.93173,-2.84602 -12.11178,-2.76239 z" /><path
   id="path28"
   style="fill:#65c8f5;stroke-width:0.764466"
   d="m 353.21094,247.61133 c -9.41906,-0.12004 -18.63305,6.12457 -21.75839,15.05528 -2.06172,5.16759 -1.86711,11.20802 0.67233,16.17712 2.31008,4.93326 6.11286,9.35966 11.12983,11.64714 4.00301,1.68787 8.47276,1.68644 12.7285,1.30625 5.16011,-0.56089 10.17834,-2.81513 13.77228,-6.60384 1.92562,-1.97063 3.58929,-4.39989 3.91985,-7.19807 0.92727,-4.4579 2.17611,-9.0755 1.19337,-13.63529 -1.31081,-5.48412 -5.28279,-9.93541 -9.81012,-13.09625 -3.47139,-2.34542 -7.63238,-3.7712 -11.84765,-3.65234 z" /><path
   id="path25"
   style="fill:#65c8f5;stroke-width:0.764466"
   d="m 603.71289,459.25195 c -9.03885,0.19143 -17.87562,6.03026 -21.05859,14.58399 -1.65993,4.70502 -2.24221,9.9719 -0.7454,14.79593 2.06822,6.2983 7.39411,11.11778 13.42151,13.60406 4.41838,1.83505 9.47767,2.19847 14.04844,0.69972 4.37297,-1.30574 8.49433,-3.54968 11.88677,-6.60753 3.98079,-3.99654 5.54755,-9.82314 5.47004,-15.34254 -0.0892,-6.21987 -3.0461,-12.33791 -7.92234,-16.21483 -4.18639,-3.51212 -9.59755,-5.67324 -15.10043,-5.5188 z" /><path
   id="path29"
   style="opacity:1;fill:#65c8f5;stroke-width:0.764466"
   d="m 371.74023,316.44336 c 3.84256,8.19902 7.38427,16.5586 11.83501,24.45866 5.4085,10.02775 10.81502,20.05952 16.36812,30.00618 1.80868,2.44569 3.65381,4.72421 5.47852,7.14453 1.96553,-2.16904 4.14901,-4.12071 6.21227,-6.1913 1.57465,-1.7843 2.39212,-4.06192 3.59735,-6.08541 2.87779,-5.41443 5.81528,-10.80048 8.62397,-16.24868 0.47488,-1.60667 1.28664,-3.06554 2.11659,-4.50848 5.70893,-10.47705 11.43174,-20.94619 17.1588,-31.41339 -24.23307,0 -48.46615,0 -72.69922,0 0.4362,0.94596 0.8724,1.89193 1.30859,2.83789 z" /><path
   id="path27"
   style="fill:#65c8f5;stroke-width:0.764466"
   d="m 458.94336,248.91992 c -7.79841,0.20474 -15.14265,5.05896 -18.72656,11.9336 -0.95177,1.78403 -1.85523,3.67616 -2.09549,5.69959 -0.11765,4.57928 -0.0492,9.42885 2.25495,13.53348 3.3926,6.34624 10.46193,10.22374 17.55239,10.51977 7.39971,0.42464 15.14408,-2.86484 19.35026,-9.09113 3.19028,-4.79147 3.81715,-10.91067 2.73912,-16.46714 -1.04287,-4.38773 -4.01703,-8.01673 -7.24798,-11.02958 -2.72849,-2.49505 -6.08097,-4.48418 -9.81639,-4.88581 -1.32758,-0.18444 -2.67138,-0.23049 -4.0103,-0.21278 z" /></svg>
